Coordinates
version=1
nRows=15
nColumns=33
inDegrees=yes

Units are S.I. units (second, meters, Newtons, ...)
Angles are in degrees.

endheader
time	ground_thorax_rot_x	ground_thorax_rot_y	ground_thorax_rot_z	ground_thorax_tx	ground_thorax_ty	ground_thorax_tz	clav_prot_r	clav_elev_r	scapula_abduction_r	scapula_elevation_r	scapula_upward_rot_r	scapula_winging_r	shoulder_elv_r	plane_of_elev_r	axial_rot_r	elbow_flexion_r	pro_sup_r	wrist_flex_r	wrist_dev_r	clav_prot_l	clav_elev_l	scapula_abduction_l	scapula_elevation_l	scapula_upward_rot_l	scapula_winging_l	shoulder_elv_l	plane_of_elev_l	axial_rot_l	elbow_flexion_l	pro_sup_l	wrist_flex_l	wrist_dev_l	
1.5900	-6.687841	1.349348	-2.154288	-0.107220	1.033784	-0.027078	-10.133223	-2.009718	9.556777	-6.312558	37.764538	-7.898983	46.984534	1.546412	-34.399945	123.876802	33.541301	13.360674	-8.416966	17.811424	1.792776	-38.900518	-4.117068	7.102979	18.039774	73.104420	63.027710	24.617382	94.390934	22.852663	-15.257880	-24.413415	
1.6000	-6.196907	0.297650	-2.292808	-0.108151	1.033507	-0.027306	-8.972718	-1.167405	11.624508	-5.606067	38.008609	-8.528482	47.817776	1.307103	-34.834990	124.185592	34.250710	13.323787	-8.743450	16.783125	1.307254	-37.271294	-3.683292	7.376187	17.028807	74.508743	62.642469	26.195188	94.687830	22.910198	-15.346913	-24.449217	
1.6100	-5.882692	-0.493666	-2.383146	-0.108881	1.033316	-0.027555	-8.161620	-0.591475	13.114542	-5.133220	38.227161	-8.977711	48.403022	1.083540	-35.198228	124.520327	34.834574	13.311681	-8.962219	15.979250	0.974872	-35.970474	-3.397801	7.539770	16.240895	75.631882	62.435509	27.410334	94.943111	22.933832	-15.440515	-24.509675	
1.6200	-5.711070	-1.047594	-2.453506	-0.109421	1.033174	-0.027812	-7.662558	-0.248417	14.097331	-4.866643	38.435814	-9.269786	48.790244	0.884101	-35.511018	124.873099	35.308520	13.316245	-9.089962	15.378066	0.780600	-34.977245	-3.238433	7.626996	15.659022	76.500042	62.384447	28.312103	95.172477	22.928727	-15.536928	-24.588260	
1.6300	-5.667792	-1.362042	-2.492226	-0.109849	1.033088	-0.028090	-7.433829	-0.109909	14.613404	-4.773397	38.606899	-9.412832	49.017544	0.702286	-35.796130	125.255761	35.703272	13.316791	-9.148863	15.026045	0.726857	-34.376747	-3.203088	7.648993	15.327749	77.100890	62.442503	28.905814	95.409029	22.910504	-15.617137	-24.665551	
1.6400	-5.680415	-1.552700	-2.504951	-0.110234	1.033001	-0.028362	-7.339426	-0.073362	14.886785	-4.763870	38.747370	-9.476674	49.165805	0.544867	-36.047901	125.639282	36.025645	13.307478	-9.166749	14.809047	0.729568	-33.986520	-3.222287	7.628421	15.121276	77.541977	62.541161	29.321218	95.651698	22.896991	-15.676312	-24.728517	
1.6500	-5.730200	-1.635435	-2.501376	-0.110572	1.032939	-0.028638	-7.357005	-0.118795	14.952831	-4.820721	38.856844	-9.474587	49.250913	0.406239	-36.270794	126.035451	36.289838	13.296342	-9.158641	14.710761	0.766482	-33.779141	-3.279120	7.564465	15.019983	77.842491	62.672583	29.574357	95.911907	22.890661	-15.718779	-24.783157	
1.6600	-5.751332	-1.693623	-2.486233	-0.110933	1.032857	-0.028897	-7.377408	-0.142514	14.988169	-4.855067	38.939298	-9.474507	49.340119	0.292970	-36.457105	126.416514	36.519301	13.312344	-9.185670	14.654773	0.743426	-33.639759	-3.291799	7.481590	14.940669	78.060926	62.776761	29.731343	96.169914	22.899003	-15.757102	-24.838725	
1.6700	-5.747861	-1.731810	-2.462638	-0.111307	1.032756	-0.029148	-7.397102	-0.145711	15.000837	-4.868166	38.996776	-9.477390	49.431212	0.196690	-36.613154	126.788761	36.734867	13.351630	-9.241885	14.634613	0.669695	-33.555096	-3.269189	7.377131	14.878473	78.214883	62.860405	29.808417	96.423633	22.921820	-15.793180	-24.893098	
1.6800	-5.731334	-1.752628	-2.418854	-0.111709	1.032613	-0.029409	-7.404030	-0.119200	15.007021	-4.851346	39.024926	-9.489497	49.518011	0.098455	-36.747629	127.154162	36.996791	13.412891	-9.322222	14.646459	0.547746	-33.510018	-3.218995	7.235181	14.825950	78.327580	62.940779	29.819354	96.640702	22.967223	-15.828861	-24.936155	
1.6900	-5.712209	-1.769212	-2.379393	-0.112090	1.032440	-0.029667	-7.392758	-0.077596	15.031779	-4.819224	39.039665	-9.509856	49.597073	-0.023049	-36.882822	127.540741	37.347897	13.478047	-9.402876	14.662383	0.418139	-33.454105	-3.175041	7.057667	14.765462	78.462276	63.031218	29.832691	96.847513	23.026138	-15.872288	-24.968940	
1.7000	-5.693381	-1.785905	-2.341505	-0.112466	1.032219	-0.029920	-7.363090	-0.021649	15.077878	-4.772874	39.043731	-9.538959	49.665396	-0.160062	-37.009721	127.935653	37.784462	13.541441	-9.477554	14.683035	0.288532	-33.392052	-3.140878	6.852351	14.701360	78.616698	63.128034	29.850035	97.036987	23.095692	-15.924732	-24.987822	
1.7100	-5.671632	-1.810073	-2.314662	-0.112841	1.031943	-0.030150	-7.326006	0.035775	15.136768	-4.725067	39.047728	-9.570876	49.723698	-0.288259	-37.112589	128.320668	38.249666	13.592746	-9.536844	14.707740	0.176876	-33.335709	-3.121693	6.646225	14.644071	78.776094	63.212775	29.871753	97.228934	23.162064	-15.986879	-24.997554	
1.7200	-5.650466	-1.839180	-2.293234	-0.113222	1.031609	-0.030365	-7.280722	0.096906	15.210245	-4.674101	39.052571	-9.606823	49.770175	-0.413171	-37.195348	128.695114	38.761597	13.624985	-9.579048	14.739913	0.081272	-33.290020	-3.116720	6.436844	14.595860	78.945183	63.288216	29.899917	97.407664	23.225795	-16.061278	-24.999768	
1.7300	-5.626906	-1.874079	-2.284926	-0.113606	1.031221	-0.030553	-7.235241	0.152816	15.291642	-4.628835	39.065627	-9.642637	49.805887	-0.520100	-37.249852	129.053675	39.283581	13.631070	-9.600309	14.780456	0.011800	-33.264299	-3.128577	6.240078	14.563782	79.116881	63.345811	29.932227	97.585659	23.278123	-16.148091	-25.000000	
